<svg xmlns="http://www.w3.org/2000/svg" width="80.001" height="80.001" viewBox="0 0 80.001 80.001">
  <g id="Grupo_1" data-name="Grupo 1" transform="translate(-509 207)">
    <path id="Caminho_9" data-name="Caminho 9" d="M40,79.91A40,40,0,1,1,79.91,40,40,40,0,0,1,40,79.91ZM40,2.55A37.41,37.41,0,1,0,77.36,40,37.41,37.41,0,0,0,40,2.55Z" transform="translate(509.091 -206.909)" fill="#fff"/>
    <path id="Caminho_10" data-name="Caminho 10" d="M40.41,66A14.58,14.58,0,0,1,37,65.56a9,9,0,0,1-6.06-5L15.78,27.09a4.67,4.67,0,0,1,0-3.77,4.78,4.78,0,0,1,2.82-2.61,17.3,17.3,0,0,1,9.57-.28,8.47,8.47,0,0,1,5.38,4.76C36,31,40.11,41.6,43.13,49.33l2.12,5.41a1.93,1.93,0,0,0,3.56.08L61.74,26.27a2.28,2.28,0,0,0,.06-2,2.73,2.73,0,0,0-1.95-1.34,19.13,19.13,0,0,0-6.09-.32,6,6,0,0,0-5,3.63l-5,12.67L41.37,38l5-12.67a8.44,8.44,0,0,1,7.08-5.22,21.49,21.49,0,0,1,6.89.36,5.29,5.29,0,0,1,3.69,2.68,4.77,4.77,0,0,1,0,4.2L51.13,55.87a4.48,4.48,0,0,1-8.25-.19c-.6-1.54-1.32-3.39-2.12-5.42-3-7.72-7.14-18.3-9.6-24.08a6,6,0,0,0-3.69-3.29,14.77,14.77,0,0,0-8.08.23,2.19,2.19,0,0,0-1.31,1.2,2.1,2.1,0,0,0,0,1.72L33.24,59.47a6.45,6.45,0,0,0,4.33,3.61,12,12,0,0,0,5.31.08,4.68,4.68,0,0,0,2.86-1.73,1.273,1.273,0,0,1,2.14,1.38,7.09,7.09,0,0,1-4.46,2.84A14.29,14.29,0,0,1,40.41,66Z" transform="translate(509.091 -206.909)" fill="#fff"/>
  </g>
</svg>
