<svg xmlns="http://www.w3.org/2000/svg" xmlns:xlink="http://www.w3.org/1999/xlink" width="213.031" height="213.031" viewBox="0 0 213.031 213.031">
  <defs>
    <clipPath id="clip-path">
      <circle id="Elipse_7" data-name="Elipse 7" cx="106.516" cy="106.516" r="106.516" transform="translate(43.149 31.994)" fill="#ca7580"/>
    </clipPath>
  </defs>
  <g id="Grupo_95" data-name="Grupo 95" transform="translate(-43.149 -31.994)">
    <circle id="Elipse_6" data-name="Elipse 6" cx="106.516" cy="106.516" r="106.516" transform="translate(43.149 31.994)" fill="#fff"/>
    <g id="Grupo_9" data-name="Grupo 9" clip-path="url(#clip-path)">
      <g id="Grupo_8" data-name="Grupo 8">
        <path id="Caminho_42" data-name="Caminho 42" d="M219.868,123.213a16.114,16.114,0,0,0-12.039-15.585,16.108,16.108,0,0,0-15.584-27,16.109,16.109,0,0,0-27-15.584,16.105,16.105,0,0,0-31.167,0,16.107,16.107,0,0,0-26.995,15.585A16.106,16.106,0,0,0,91.5,107.628a16.107,16.107,0,0,0,0,31.17,16.106,16.106,0,0,0,15.584,26.994,16.107,16.107,0,0,0,26.995,15.585,16.1,16.1,0,0,0,31.167,0,16.109,16.109,0,0,0,27-15.585A16.107,16.107,0,0,0,207.829,138.8,16.116,16.116,0,0,0,219.868,123.213Z" fill="#41281b"/>
        <path id="Caminho_43" data-name="Caminho 43" d="M193.94,148.509c0,7.68-4.621,13.907-10.322,13.907S173.3,156.189,173.3,148.509s4.621-13.907,10.321-13.907S193.94,140.828,193.94,148.509Z" fill="#89542c"/>
        <path id="Caminho_44" data-name="Caminho 44" d="M125.026,148.509c0,7.68-4.621,13.907-10.32,13.907s-10.323-6.227-10.323-13.907S109,134.6,114.706,134.6,125.026,140.828,125.026,148.509Z" fill="#89542c"/>
        <path id="Caminho_45" data-name="Caminho 45" d="M161.12,193.091l3.183,15.127s28.533,1.393,34.447,7.961c6.844,7.6,5,40.6,5,40.6H96.254s-2.732-32.94,4-40.6c5.834-6.638,34.448-7.961,34.448-7.961l3.183-15.127" fill="#89542c"/>
        <path id="Caminho_46" data-name="Caminho 46" d="M105.12,170.615a10.559,10.559,0,1,1,10.558,10.558A10.561,10.561,0,0,1,105.12,170.615Z" fill="none" stroke="#f29400" stroke-miterlimit="10" stroke-width="4"/>
        <path id="Caminho_47" data-name="Caminho 47" d="M173.084,170.615a10.56,10.56,0,1,1,10.559,10.558A10.561,10.561,0,0,1,173.084,170.615Z" fill="none" stroke="#f29400" stroke-miterlimit="10" stroke-width="4"/>
        <path id="Caminho_48" data-name="Caminho 48" d="M114.168,156.47c0-11.314-4.191-29.545,4.135-42.732,5.908-9.36,22.863-16.18,30.895-16.18,8.07,0,26.652,6.748,32.574,16.18,8.275,13.177,2.455,31.458,2.455,42.732,0,19.347-15.684,42.99-35.029,42.99S114.168,175.817,114.168,156.47Z" fill="#b36d3c"/>
        <g id="Grupo_7" data-name="Grupo 7">
          <path id="Caminho_49" data-name="Caminho 49" d="M153.428,171.31a6.3,6.3,0,0,0-4.361,1.752,6.32,6.32,0,0,0-10.688,4.572h21.373A6.323,6.323,0,0,0,153.428,171.31Z" fill="#f196bf"/>
          <path id="Caminho_50" data-name="Caminho 50" d="M138.379,177.634a11.142,11.142,0,0,0,21.373,0Z" fill="#ec6283"/>
        </g>
        <path id="Caminho_51" data-name="Caminho 51" d="M148.123,96.01c-8.712,0-27.111,7.749-33.521,18.386-3.826,6.347-5.213,13.721-5.543,21.09,6.971,1.513,14.506-.045,19.594-4.039,2.248,6.664,10.035,11.586,19.33,11.585s17.082-4.923,19.33-11.585c5.426,4.26,13.633,5.75,20.973,3.695.007-7.258-1.075-14.506-4.817-20.746C177.043,103.679,156.881,96.01,148.123,96.01Z" fill="#41281b"/>
        <path id="Caminho_52" data-name="Caminho 52" d="M198.75,216.179c-5.4-6-29.65-7.68-33.822-7.926a16.126,16.126,0,0,1-30.211-.107l-.015.072s-28.614,1.323-34.448,7.961c-6.732,7.662-4,40.6-4,40.6h107.5S205.594,223.779,198.75,216.179Z" fill="#1a171b"/>
        <path id="Caminho_53" data-name="Caminho 53" d="M219.868,123.213a16.114,16.114,0,0,0-12.039-15.585,16.108,16.108,0,0,0-15.584-27,16.109,16.109,0,0,0-27-15.584,16.113,16.113,0,0,0-15.406-12.032V256.781H203.75s1.844-33-5-40.6c-5.914-6.568-34.447-7.961-34.447-7.961l-2.556-12.143a39.283,39.283,0,0,0,11.736-10.246,16.092,16.092,0,0,0,18.762-20.037A16.107,16.107,0,0,0,207.829,138.8,16.116,16.116,0,0,0,219.868,123.213Z" fill="#d9dadb" style="mix-blend-mode: multiply;isolation: isolate"/>
      </g>
    </g>
  </g>
</svg>
