<svg xmlns="http://www.w3.org/2000/svg" xmlns:xlink="http://www.w3.org/1999/xlink" width="213.031" height="213.031" viewBox="0 0 213.031 213.031">
  <defs>
    <clipPath id="clip-path">
      <path id="Caminho_167" data-name="Caminho 167" d="M43.149,621.489A106.515,106.515,0,1,1,149.665,728.006,106.514,106.514,0,0,1,43.149,621.489Z" fill="#efdfe1"/>
    </clipPath>
  </defs>
  <g id="Grupo_96" data-name="Grupo 96" transform="translate(-43.149 -514.975)">
    <path id="Caminho_155" data-name="Caminho 155" d="M43.149,621.489A106.515,106.515,0,1,1,149.665,728.006,106.514,106.514,0,0,1,43.149,621.489Z" fill="#fff"/>
    <g id="Grupo_78" data-name="Grupo 78" clip-path="url(#clip-path)">
      <g id="Grupo_77" data-name="Grupo 77">
        <path id="Caminho_156" data-name="Caminho 156" d="M148.586,539.683c9.637,0,29.983,8.183,37.073,19.416,9.992,15.826,8.392,112.548,6.177,144.2-.353,5.056-10.332,20.218-15.375,20.725-8.623.867-26.759-20.725-26.759-20.725h-2.231s-18.138,21.592-26.76,20.725c-5.043-.507-15.021-15.669-15.375-20.725-2.214-31.65-3.814-128.372,6.178-144.2C118.6,547.866,138.95,539.683,148.586,539.683Z" fill="#533221"/>
        <g id="Grupo_71" data-name="Grupo 71">
          <path id="Caminho_157" data-name="Caminho 157" d="M160.942,642.508l3.183,15.127s28.534,1.392,34.448,7.961c6.843,7.6,5,62.761,5,62.761H96.077s-2.733-55.1,4-62.761c5.834-6.641,34.447-7.961,34.447-7.961l3.183-15.127" fill="#e2ba7d"/>
        </g>
        <g id="Grupo_75" data-name="Grupo 75">
          <g id="Grupo_73" data-name="Grupo 73">
            <g id="Grupo_72" data-name="Grupo 72">
              <path id="Caminho_158" data-name="Caminho 158" d="M124.848,597.925c0,7.679-4.621,13.905-10.32,13.905s-10.322-6.226-10.322-13.905,4.621-13.907,10.322-13.907S124.848,590.244,124.848,597.925Z" fill="#e2ba7d"/>
              <path id="Caminho_159" data-name="Caminho 159" d="M113.991,605.887c0-11.317-4.192-29.545,4.134-42.734,5.909-9.361,22.864-16.179,30.9-16.179,8.07,0,26.652,6.748,32.574,16.179,8.276,13.177,2.455,31.458,2.455,42.734,0,19.345-15.683,42.99-35.029,42.99S113.991,625.232,113.991,605.887Z" fill="#f0d09f"/>
            </g>
            <path id="Caminho_160" data-name="Caminho 160" d="M183.125,562.256c-7.363-10.854-25.744-17-34.222-17-8.438,0-26.25,7.163-32.458,17-4.178,6.616-4.155,14.158-4.245,21.824-.707.147,22.762-18.74,22.762-18.74s36.574,48.861,49.652,51.2C184.848,615.484,191.549,574.675,183.125,562.256Z" fill="#533221"/>
          </g>
          <g id="Grupo_74" data-name="Grupo 74">
            <circle id="Elipse_14" data-name="Elipse 14" cx="3" cy="3" r="3" transform="translate(109.936 616.72)" fill="#fff"/>
            <path id="Caminho_161" data-name="Caminho 161" d="M111.673,615.239a.95.95,0,1,1,.95.951A.949.949,0,0,1,111.673,615.239Z" fill="#fff"/>
            <path id="Caminho_162" data-name="Caminho 162" d="M111.673,612.852a.95.95,0,1,1,.95.95A.949.949,0,0,1,111.673,612.852Z" fill="#fff"/>
            <path id="Caminho_163" data-name="Caminho 163" d="M111.673,610.464a.95.95,0,1,1,.95.95A.949.949,0,0,1,111.673,610.464Z" fill="#fff"/>
          </g>
        </g>
        <g id="Grupo_76" data-name="Grupo 76">
          <path id="Caminho_164" data-name="Caminho 164" d="M198.456,663.656c-3.629-4.029-15.594-6.147-24.559-7.2a29.43,29.43,0,0,1-50.712-.095c-9.047,1.008-21.529,3.119-25.195,7.292-6.867,7.816-4.049,69.06-4.049,69.06l111.673-2.027S205.436,671.408,198.456,663.656Z" fill="#ca7580"/>
          <path id="Caminho_165" data-name="Caminho 165" d="M172.415,654.69a3.563,3.563,0,0,0-4.819,4.959,3.543,3.543,0,0,0-4.424,4.424,3.54,3.54,0,0,0-5.416,3.127,3.542,3.542,0,0,0-6.043,1.619,3.542,3.542,0,0,0-6.255,0,3.54,3.54,0,0,0-6.043-1.618A3.54,3.54,0,0,0,134,664.073a3.541,3.541,0,0,0-4.423-4.424,3.562,3.562,0,1,0-2.032,1.561,3.561,3.561,0,0,0,4.9,4.895,3.561,3.561,0,0,0,6,3.461,3.56,3.56,0,0,0,6.687,1.793,3.561,3.561,0,0,0,6.924,0,3.562,3.562,0,0,0,6.69-1.793,3.56,3.56,0,0,0,6-3.461,3.561,3.561,0,0,0,4.9-4.9,3.569,3.569,0,0,0,2.786-6.518Z" fill="#fff"/>
        </g>
        <path id="Caminho_166" data-name="Caminho 166" d="M149.665,731.7l55.949-1.015s-.178-59.281-7.158-67.033a13.7,13.7,0,0,0-5.081-3.073c.579-40.191-.757-90.461-7.716-101.484-6.836-10.83-25.993-18.824-35.994-19.382Z" fill="#c6c7c8" style="mix-blend-mode: multiply;isolation: isolate"/>
      </g>
    </g>
  </g>
</svg>
